<?xml version="1.0" standalone="no"?>
<!DOCTYPE svg PUBLIC "-//W3C//DTD SVG 20010904//EN"
 "http://www.w3.org/TR/2001/REC-SVG-20010904/DTD/svg10.dtd">
<svg version="1.0" xmlns="http://www.w3.org/2000/svg"
 width="338.000000pt" height="338.000000pt" viewBox="0 0 338.000000 338.000000"
 preserveAspectRatio="xMidYMid meet">
<metadata>
Created by potrace 1.14, written by Peter Selinger 2001-2017
</metadata>
<g transform="translate(0.000000,338.000000) scale(0.100000,-0.100000)"
fill="#000000" stroke="none">
<path d="M1466 3364 c-265 -36 -507 -130 -741 -287 -118 -80 -340 -302 -422
-422 -284 -418 -372 -912 -247 -1391 77 -297 216 -537 444 -764 144 -144 248
-222 410 -308 484 -256 1084 -254 1570 5 157 84 259 161 400 303 240 240 387
501 456 810 105 476 17 935 -259 1345 -80 118 -302 340 -422 422 -358 242
-776 344 -1189 287z m-192 -1054 c102 -26 164 -61 230 -130 61 -64 90 -114
111 -197 29 -110 37 -103 -135 -103 l-150 0 0 38 c0 59 -38 122 -90 149 -34
18 -59 23 -117 23 -107 0 -151 -28 -195 -125 -20 -45 -23 -70 -26 -235 -6
-274 17 -368 103 -417 47 -27 165 -32 218 -9 52 21 95 78 103 136 l7 50 148 0
c172 0 163 7 134 -105 -56 -215 -267 -347 -529 -332 -274 15 -442 177 -487
469 -15 96 -6 335 15 412 84 304 350 456 660 376z m1128 6 c188 -40 320 -166
363 -347 8 -35 15 -70 15 -76 0 -10 -36 -13 -149 -13 l-148 0 -7 49 c-7 54
-36 103 -79 135 -22 16 -47 22 -113 25 -76 3 -88 1 -128 -23 -88 -51 -124
-194 -113 -441 12 -259 64 -335 229 -335 57 0 82 5 113 23 50 28 82 76 91 133
l6 44 149 0 c113 0 149 -3 149 -12 -1 -35 -33 -144 -56 -190 -79 -155 -272
-247 -494 -235 -205 12 -341 99 -425 271 -48 99 -65 197 -65 368 0 168 16 252
65 356 103 218 336 323 597 268z"/>
</g>
</svg>
